<?xml version="1.0" encoding="UTF-8"?>
<svg width="1200pt" height="1200pt" version="1.1" viewBox="0 0 1200 1200" xmlns="http://www.w3.org/2000/svg">
 <path d="m908.75 827.88-0.007813-134.9v-0.003907c3.2461-33.641-15.535-51.293-47.375-70.555-55.516-32.062-110.88-64.117-166.45-96.344-34.934-20.047-62.133-32.363-99.207-17.176l76.52-127.18c0.007813-0.011718 0.011719-0.027343 0.015625-0.039062 14.789-19.977 16.156-41.973 3.2148-63.656-3.8594-13.73-0.54688-5.2305-95.629-177.81-30.98-55.559-49.879-63.391-101.39-64.805-61.68-0.71094-123.16-1.4688-184.84-2.3047-22.992-0.17578-67.109 12.863-80.531 31.555-20.258 33.668 51.609-85.789-98.664 164-28.711 47.195-37.844 70.016 1.75 138.78 82.766 146.96 84.863 150.66 90.859 158.12 11.832 30.031 34.062 50.09 87.5 45.891 27.223-0.96484 46.551 0.25391 117.71 2.875-9.8867 5.7656-24.398 13.742-37.293 27.859-8.9023 9.3906-27.406 33.195-28.789 50.07l-0.007812 201.21c-0.29297 57.738 3.6562 83.113 76.469 123.56 49.562 28.133 99.273 56.266 148.94 84.141 6.2266 3.6484 12.105 6.7422 18.672 9.1133 26.797 20.547 44.547 20.496 80.328 8.2148 2.5117-0.86328 12.266-7.4375 16.207-10.027 20.461-3.8047 6.9922-6.5117 216.97-56.801 82.289-19.719 147.28-35.289 183.21-52.766 24.734-11.832 31.031-43.816 13.562-63.938-32.035-37.492-152.62-81.02-191.75-107.09zm-264.22 256.48-4.5234-214.89c-1.418-23.461 6.3125-46.285 26.117-59.727 1.6992-1.1523 49.086-22.418 206.44-122.1 6.7617-4.2891 11.941 1.9375 12.199 6.4688 0 49.457 0.007813 198.42 0.007813 233.42v0.003906c0.38281 12.699-5.1797 29.504-18.523 44.875-22.684 27.328-85.109 47.406-202.73 122.6-6.3398 4.0859-17.367 1.6641-18.98-10.652zm38.391-537.5c55.531 32.203 110.91 64.273 166.23 96.211 5.2422 3.1719 9.6484 6.4844 12.523 9.3516 6.9414 7.3281 5.0547 9.5625 2.0703 12.32-8.875 6.3906-130.23 78.371-168.15 102.02-50.82 31.191-64.484 27.406-103.43 4.9844-1.6289-0.92578-139.11-79.297-177.1-100.71-26.277-14.941-11.832-23.609-1.6172-29.617 179.14-104.53 177.69-104.48 190.94-110.19 28.383-11.824 48.922-1.3711 78.539 15.625zm-203.82-447.43c42.168 1.1953 53.281 4.9844 79.734 52.414 93.133 169.05 91.473 163.95 93.867 173.52 2.0195 9.1172-0.50781 9.6367-3.9141 10.352-6.5664 0.48047-146.43 0.23438-189.19 0.71484-52.191 0.47266-62.852-8.3477-83.973-46.355-36.355-65-87.012-154.81-94.969-168.94-0.03125-0.054687-0.050782-0.10156-0.078125-0.15625-13.652-24.027 1.5234-23.93 12.758-23.883 61.625 0.83594 123.12 1.5938 185.77 2.3281zm-342.09 296.13c-34.43-59.805-26.824-73.781-2.0938-114.44l98.125-163.2c6.9531-9.543 11.297-5.4609 21.656 4.6953 2.043 5.3477 99.059 177.55 99.965 179.15 15.383 27.648 5.6211 52.207-8.9844 80.445l-100.98 176.15c-1.6328 1.4805-10.617 1.5547-18.188-6.6133-3.5625-4.0078 3.2969 8.5664-89.504-156.19zm156.45 191.92c-13.711 1.0195-36.762 3.4883-28.434-16.289 0.91797-1.6016 104.75-182.84 106.34-185.21 25.434-37.961 53.102-25.027 91.199-25.566 0.085937-0.003907 0.19531-0.003907 0.28516-0.003907 24.402-0.39062 171.71-0.085937 185.37-0.625 2.8828 2.2734 4.9688 6.582 2.9258 10.43l-96.93 161.09c-34.469 20.188-68.926 40.316-103.38 60.449-151.2-5.8945-121.1-4.3828-157.37-4.2695zm140.9 408.62c-65.602-36.441-63.816-52.836-64.211-104.63l-0.046875-198.13c1.168-13.207 15.102-13.285 26.004-5.8594 6.6875 4.5547-13.18-7.3086 184.12 105.09 20.637 11.871 32.281 34.984 35.164 58.812 0.003906 0.023437 0.015625 0.046875 0.019531 0.074219 0.027344-3.8359 1.3672 51.234 5.1094 232.52-0.46875 1.7695-6.4609 5.6406-13.129 5.6406-7.9062 0.17188-17.066-5.2539-23.906-9.2578-49.82-27.973-99.5-56.09-149.12-84.262z"/>
 <path d="m779.74 909.83c15.008 0 26.758-13.906 26.758-31.656 0-17.758-11.75-31.664-26.758-31.664-15.008 0-26.766 13.906-26.766 31.664 0 17.75 11.758 31.656 26.766 31.656z"/>
 <path d="m259.97 330.24c0-17.758-11.758-31.664-26.766-31.664-15.008 0-26.758 13.906-26.758 31.664 0 17.75 11.75 31.656 26.758 31.656 15.008 0 26.766-13.906 26.766-31.656z"/>
 <path d="m403.89 434.16c-15.008 0-26.758 13.906-26.758 31.656 0 17.758 11.75 31.664 26.758 31.664 15.008 0 26.766-13.906 26.766-31.664 0-17.75-11.758-31.656-26.766-31.656z"/>
 <path d="m504.8 436.94c-15.008 0-26.758 13.906-26.758 31.664 0 17.75 11.75 31.656 26.758 31.656 15.008 0 26.758-13.906 26.758-31.656 0-17.758-11.75-31.664-26.758-31.664z"/>
 <path d="m380.73 190.32c15.008 0 26.758-13.906 26.758-31.656 0-17.758-11.75-31.664-26.758-31.664-15.008 0-26.766 13.906-26.766 31.664 0 17.75 11.758 31.656 26.766 31.656z"/>
 <path d="m490.04 190.32c15.008 0 26.758-13.906 26.758-31.656 0-17.758-11.75-31.664-26.758-31.664-15.008 0-26.766 13.906-26.766 31.664 0 17.75 11.758 31.656 26.766 31.656z"/>
 <path d="m546.72 295.43c15.008 0 26.766-13.906 26.766-31.656 0-17.758-11.758-31.664-26.766-31.664-15.008 0-26.758 13.906-26.758 31.664 0 17.75 11.75 31.656 26.758 31.656z"/>
 <path d="m430.48 295.43c15.008 0 26.758-13.906 26.758-31.656 0-17.758-11.75-31.664-26.758-31.664-15.008 0-26.766 13.906-26.766 31.664 0 17.75 11.758 31.656 26.766 31.656z"/>
 <path d="m445.24 836.43c-15.008 0-26.758 13.906-26.758 31.664 0 17.75 11.75 31.656 26.758 31.656 15.008 0 26.758-13.906 26.758-31.656 0-17.758-11.75-31.664-26.758-31.664z"/>
 <path d="m531.96 876.43c-15.008 0-26.758 13.906-26.758 31.656 0 17.758 11.75 31.664 26.758 31.664 15.008 0 26.758-13.906 26.758-31.664 0-17.75-11.75-31.656-26.758-31.656z"/>
 <path d="m624.93 691.75c15.008 0 26.758-13.906 26.758-31.664 0-17.75-11.75-31.656-26.758-31.656-15.008 0-26.766 13.906-26.766 31.656 0 17.758 11.758 31.664 26.766 31.664z"/>
 <path d="m511.21 628.76c-15.008 0-26.758 13.906-26.758 31.656 0 17.758 11.75 31.664 26.758 31.664 15.008 0 26.766-13.906 26.766-31.664 0-17.75-11.758-31.656-26.766-31.656z"/>
 <path d="m738.64 687.64c15.008 0 26.766-13.906 26.766-31.664 0-17.75-11.758-31.656-26.766-31.656-15.008 0-26.758 13.906-26.758 31.656 0 17.758 11.75 31.664 26.758 31.664z"/>
 <path d="m830.04 197.18c-4.7812-4.5859-12.367-4.4531-16.969 0.3125l-45.227 46.984c-4.5938 4.7734-4.4453 12.367 0.32812 16.969 4.7852 4.5938 12.363 4.4453 16.969-0.32812l45.211-46.977c4.6016-4.7734 4.4609-12.367-0.3125-16.961z"/>
 <path d="m794.86 370.71 86.914 24.32c6.2969 1.7812 12.984-1.8867 14.789-8.3203 1.7891-6.3828-1.9375-13-8.3203-14.789l-86.914-24.32c-6.4062-1.8047-13.008 1.9375-14.789 8.3203-1.7891 6.3828 1.9375 13.008 8.3203 14.789z"/>
</svg>
